<svg xmlns="http://www.w3.org/2000/svg" viewBox="0 0 1000 775.22">
  <path fill="#ffffff" d="M364.08,595.87V557.94h2.73l6.4,15.39,6.37-15.39h2.77v37.93h-1.71V562.09l-6,14.45h-1.87l-6-14.45v33.78Zm-16.16-36.17v-1.76h11.87v1.76h-5.06v36.17h-1.75V559.7ZM875.47,746.5v-2.78c0-1.07-.61-1.77-1.86-1.77s-1.85.7-1.85,1.77a1.51,1.51,0,0,0,1.7,1.6l2,.35c1.95.35,3,.94,3,2.63,0,1.85-1.55,3-3.89,3s-3.89-1.19-3.89-3v-2.78h1.7v2.78c0,1.07.74,1.77,2.19,1.77s2.19-.7,2.19-1.77c0-.88-.48-1.42-1.7-1.6l-2-.35c-1.95-.35-3-1.11-3-2.63,0-1.85,1.38-3,3.56-3s3.55,1.19,3.55,3v2.78Zm-11.74,3.54h-1.7v-8.15h-3v-1.42h7.75v1.42h-3Zm-8.83-1.85v1.85h-6.27v-9.57h6.14v1.85h-4.43v2h3.85v1.77h-3.85v2.14Zm-13.12,1.85h-1.7v-8.15h-3v-1.42h7.74v1.42h-3Zm-12.13,0h-6.27v-9.57h6.14v1.85h-4.43v2h3.85v1.77h-3.85v2.14h4.56Zm-12.26-3.54v-2.78c0-1.07-.61-1.77-1.86-1.77s-1.85.7-1.85,1.77a1.51,1.51,0,0,0,1.7,1.6l2,.35c2,.35,3,.94,3,2.63,0,1.85-1.55,3-3.89,3s-3.89-1.19-3.89-3v-2.78h1.7v2.78c0,1.07.74,1.77,2.19,1.77s2.19-.7,2.19-1.77c0-.88-.48-1.42-1.7-1.6l-2-.35c-1.95-.35-3-1.11-3-2.63,0-1.85,1.38-3,3.56-3s3.55,1.19,3.55,3v2.78Zm-15.5,3.54-4.17-9.57h1.83l3.23,7.55,3.23-7.55h1.83l-4.17,9.57Zm-14.87,0h-1.71v-9.57h1.71Zm-7.58,0h-6.27v-9.57h6.14v1.85h-4.43v2h3.85v1.77h-3.85v2.14h4.56Zm-16.69,0-2.46-7.55-2.46,7.55h-1.71l-3.15-9.57h1.79l2.42,7.55,2.46-7.55h1.71l2.46,7.55,2.42-7.55h1.79l-3.15,9.57ZM500,387.61c0,168.61,136.79,305.39,305.39,305.39S1110.78,556.22,1110.78,387.61,974,82.22,805.39,82.22,500,219,500,387.61Zm526.92,0c0,122.33-99.2,221.53-221.53,221.53S584.25,510.33,584.25,388,683.45,166.47,805.78,166.47,1026.92,265.67,1026.92,387.61ZM194.61,387.61c0,168.61,136.79,305.39,305.39,305.39S805.39,556.22,805.39,387.61,668.6,82.22,500,82.22,194.61,219,194.61,387.61Zm526.92,0c0,122.33-99.2,221.53-221.53,221.53S278.86,510.33,278.86,388,378.06,166.47,500.39,166.47,721.53,265.67,721.53,387.61ZM359.84,775.22c-198.27,0-359.84-161.57-359.84-359.84S161.57,55.54,359.84,55.54a358.12,358.12,0,0,1,140.55,28.45A358.43,358.43,0,0,0,445.16,277.8c0,152.79,124.06,276.85,276.85,276.85a276.41,276.41,0,0,0,193.81-79A359.86,359.86,0,0,1,359.84,775.22Z"/>
</svg>